<?xml version="1.0" encoding="utf-8"?>
<!-- Generator: Adobe Illustrator 26.4.1, SVG Export Plug-In . SVG Version: 6.00 Build 0)  -->
<svg version="1.1" id="Layer_1" xmlns="http://www.w3.org/2000/svg" xmlns:xlink="http://www.w3.org/1999/xlink" x="0px" y="0px"
	 viewBox="0 0 624.9 241.1" style="enable-background:new 0 0 624.9 241.1;" xml:space="preserve">
<style type="text/css">
	.st0{fill:#135065;}
	.st1{fill:#0E4D61;}
</style>
<path class="st0" d="M602.3,185.3c0,0.7,0.2,1.3,0.7,1.8c0.5,0.5,1.1,0.7,1.8,0.7h9.9c0.7,0,1.3-0.2,1.8-0.7
	c0.5-0.5,0.7-1.1,0.7-1.8V182c0-0.7-0.2-1.3-0.7-1.8c-0.5-0.5-1.1-0.7-1.8-0.7h-9.9c-0.5,0-0.8-0.4-0.8-0.8v-3.3
	c0-0.4,0.4-0.8,0.8-0.8h9.9c0.4,0,0.8,0.4,0.8,0.8v0.6h1.7v-0.6c0-0.7-0.2-1.3-0.7-1.8c-0.5-0.5-1.1-0.7-1.8-0.7h-9.9
	c-0.7,0-1.3,0.2-1.8,0.7c-0.5,0.5-0.7,1.1-0.7,1.8v3.3c0,0.7,0.2,1.3,0.7,1.8c0.5,0.5,1.1,0.7,1.8,0.7h9.9c0.4,0,0.8,0.3,0.8,0.8
	v3.3c0,0.4-0.4,0.8-0.8,0.8h-9.9c-0.5,0-0.8-0.4-0.8-0.8v-0.6h-1.7L602.3,185.3L602.3,185.3z M581.9,174.6h6.6v13.2h1.7v-13.2h6.6
	v-1.7h-14.9L581.9,174.6L581.9,174.6z M561.3,187.8h1.7v-13l10.9,13h2.3v-14.9h-1.7v13l-10.9-13h-2.3L561.3,187.8L561.3,187.8z
	 M541.7,180.7v-5.3c0-0.4,0.4-0.8,0.8-0.8h9.9c0.4,0,0.8,0.4,0.8,0.8v5.3H541.7z M540,175.4v12.4h1.7v-5.4h11.5v5.4h1.7v-12.4
	c0-0.7-0.2-1.3-0.7-1.8c-0.5-0.5-1.1-0.7-1.8-0.7h-9.9c-0.7,0-1.3,0.2-1.8,0.7C540.2,174.1,540,174.7,540,175.4z M519.4,174.6h6.6
	v13.2h1.7v-13.2h6.6v-1.7h-14.9V174.6z M500,187.8h14.9v-1.7h-13.2v-13.2H500L500,187.8L500,187.8z M478.7,185.3
	c0,0.7,0.2,1.3,0.7,1.8c0.5,0.5,1.1,0.7,1.7,0.7h9.9c0.7,0,1.3-0.2,1.8-0.7c0.5-0.5,0.7-1.1,0.7-1.8v-12.4h-1.7v12.4
	c0,0.4-0.4,0.8-0.8,0.8h-9.9c-0.4,0-0.8-0.4-0.8-0.8v-12.4h-1.7V185.3z M457.5,185.3c0,0.7,0.2,1.3,0.7,1.8c0.5,0.5,1.1,0.7,1.7,0.7
	h9.9c0.7,0,1.3-0.2,1.8-0.7c0.5-0.5,0.7-1.1,0.7-1.8V182c0-0.7-0.2-1.3-0.7-1.8c-0.5-0.5-1.1-0.7-1.8-0.7H460
	c-0.4,0-0.8-0.4-0.8-0.8v-3.3c0-0.4,0.4-0.8,0.8-0.8h9.9c0.5,0,0.8,0.4,0.8,0.8v0.6h1.7v-0.6c0-0.7-0.2-1.3-0.7-1.8
	c-0.5-0.5-1.1-0.7-1.8-0.7H460c-0.7,0-1.3,0.2-1.7,0.7c-0.5,0.5-0.7,1.1-0.7,1.8v3.3c0,0.7,0.2,1.3,0.7,1.8c0.5,0.5,1.1,0.7,1.7,0.7
	h9.9c0.5,0,0.8,0.3,0.8,0.8v3.3c0,0.4-0.4,0.8-0.8,0.8H460c-0.4,0-0.8-0.4-0.8-0.8v-0.6h-1.7L457.5,185.3L457.5,185.3z M436.4,187.8
	h1.7v-13l10.9,13h2.3v-14.9h-1.7v13l-10.9-13h-2.3L436.4,187.8L436.4,187.8z M416.8,185.3v-9.9c0-0.4,0.4-0.8,0.8-0.8h9.9
	c0.5,0,0.8,0.4,0.8,0.8v9.9c0,0.4-0.4,0.8-0.8,0.8h-9.9C417.2,186.1,416.8,185.7,416.8,185.3z M415.1,175.4v9.9
	c0,0.7,0.2,1.3,0.7,1.8s1.1,0.7,1.7,0.7h9.9c0.7,0,1.3-0.2,1.8-0.7c0.5-0.5,0.7-1.1,0.7-1.8v-9.9c0-0.7-0.2-1.3-0.7-1.8
	c-0.5-0.5-1.1-0.7-1.8-0.7h-9.9c-0.7,0-1.3,0.2-1.7,0.7C415.4,174.1,415.1,174.7,415.1,175.4z M394.1,175.4v9.9
	c0,0.7,0.2,1.3,0.7,1.8c0.5,0.5,1.1,0.7,1.7,0.7h12.3v-1.7h-12.3c-0.4,0-0.8-0.4-0.8-0.8v-9.9c0-0.4,0.3-0.8,0.8-0.8h12.3v-1.7
	h-12.3c-0.7,0-1.3,0.2-1.7,0.7C394.3,174.1,394.1,174.7,394.1,175.4z M363.8,174.6h6.6v13.2h1.7v-13.2h6.6v-1.7h-14.9L363.8,174.6
	L363.8,174.6z M343.2,187.8h1.7v-13l10.9,13h2.3v-14.9h-1.7v13l-10.9-13h-2.3L343.2,187.8L343.2,187.8z M323.4,187.8h13.6v-1.7H325
	v-4.9h9.6v-1.7H325v-4.9h11.9v-1.7h-13.6V187.8z M300,187.8h1.7v-13l6.8,8.1l6.8-8.1v13h1.7v-14.9h-2.3l-6.2,7.4l-6.2-7.4H300
	L300,187.8L300,187.8z M280.7,187.8h13.6v-1.7h-11.9v-4.9h9.6v-1.7h-9.6v-4.9h11.9v-1.7h-13.6V187.8z M259.5,175.4v9.9
	c0,0.7,0.2,1.3,0.7,1.8s1.1,0.7,1.7,0.7h9.9c0.7,0,1.3-0.2,1.8-0.7c0.5-0.5,0.7-1.1,0.7-1.8v-5.4H269v1.7h3.7v3.7
	c0,0.4-0.4,0.8-0.8,0.8h-9.9c-0.4,0-0.8-0.4-0.8-0.8v-9.9c0-0.4,0.4-0.8,0.8-0.8h9.9c0.5,0,0.8,0.4,0.8,0.8v0.6h1.7v-0.6
	c0-0.7-0.2-1.3-0.7-1.8c-0.5-0.5-1.1-0.7-1.8-0.7h-9.9c-0.7,0-1.3,0.2-1.7,0.7C259.7,174.1,259.5,174.7,259.5,175.4z M239.8,180.7
	v-5.3c0-0.4,0.4-0.8,0.8-0.8h9.9c0.4,0,0.8,0.4,0.8,0.8v5.3H239.8z M238.1,175.4v12.4h1.7v-5.4h11.5v5.4h1.7v-12.4
	c0-0.7-0.2-1.3-0.7-1.8c-0.5-0.5-1.1-0.7-1.8-0.7h-9.9c-0.7,0-1.3,0.2-1.8,0.7C238.4,174.1,238.1,174.7,238.1,175.4z M216.8,187.8
	h1.7v-13l10.9,13h2.3v-14.9H230v13l-10.9-13h-2.3L216.8,187.8L216.8,187.8z M197.1,180.7v-5.3c0-0.4,0.4-0.8,0.8-0.8h9.9
	c0.4,0,0.8,0.4,0.8,0.8v5.3H197.1z M195.4,175.4v12.4h1.7v-5.4h11.5v5.4h1.7v-12.4c0-0.7-0.2-1.3-0.7-1.8c-0.5-0.5-1.1-0.7-1.8-0.7
	h-9.9c-0.7,0-1.3,0.2-1.8,0.7C195.7,174.1,195.4,174.7,195.4,175.4z M172.1,187.8h1.7v-13l6.8,8.1l6.8-8.1v13h1.7v-14.9h-2.3
	l-6.2,7.4l-6.2-7.4h-2.3L172.1,187.8L172.1,187.8z M142.5,187.8H156v-1.7h-11.9v-4.9h9.5v-1.7h-9.5v-4.9H156v-1.7h-13.6V187.8z
	 M121.4,175.4v9.9c0,0.7,0.2,1.3,0.7,1.8s1.1,0.7,1.8,0.7h12.4v-1.7h-12.4c-0.4,0-0.8-0.4-0.8-0.8v-9.9c0-0.4,0.4-0.8,0.8-0.8h12.4
	v-1.7h-12.4c-0.7,0-1.3,0.2-1.8,0.7C121.6,174.1,121.4,174.7,121.4,175.4z M112.7,187.8h1.7v-14.9h-1.7V187.8z M92.2,174.6h6.6v13.2
	h1.7v-13.2h6.6v-1.7H92.2V174.6z M71.8,175.4v9.9c0,0.7,0.2,1.3,0.7,1.8c0.5,0.5,1.1,0.7,1.7,0.7h12.4v-1.7H74.3
	c-0.4,0-0.8-0.4-0.8-0.8v-9.9c0-0.4,0.4-0.8,0.8-0.8h12.4v-1.7H74.3c-0.7,0-1.3,0.2-1.7,0.7C72,174.1,71.8,174.7,71.8,175.4z
	 M52.1,180.7v-5.3c0-0.4,0.4-0.8,0.8-0.8h9.9c0.4,0,0.8,0.4,0.8,0.8v5.3H52.1z M50.5,175.4v12.4h1.7v-5.4h11.5v5.4h1.7v-12.4
	c0-0.7-0.2-1.3-0.7-1.8c-0.5-0.5-1.1-0.7-1.8-0.7H53c-0.7,0-1.3,0.2-1.8,0.7C50.7,174.1,50.5,174.7,50.5,175.4z M30.9,179.8v-4.4
	c0-0.4,0.4-0.8,0.8-0.8h9.9c0.4,0,0.8,0.4,0.8,0.8v4.4c0,0.4-0.3,0.8-0.8,0.8h-9.9C31.3,180.5,30.9,180.2,30.9,179.8z M29.3,187.8
	h1.7v-5.6c0.4,0.1,0.7,0.1,0.8,0.1h5.4l4.6,5.5H44l-4.7-5.5h2.3c0.7,0,1.3-0.2,1.8-0.7c0.5-0.5,0.7-1.1,0.7-1.8v-4.4
	c0-0.7-0.2-1.3-0.7-1.8c-0.5-0.5-1.1-0.7-1.8-0.7H29.3L29.3,187.8L29.3,187.8z M10.5,179.8v-4.4c0-0.4,0.4-0.8,0.8-0.8h9.9
	c0.4,0,0.8,0.4,0.8,0.8v4.4c0,0.4-0.4,0.8-0.8,0.8h-9.9C10.9,180.5,10.5,180.2,10.5,179.8z M8.8,187.8h1.7v-5.6
	c0.4,0.1,0.7,0.1,0.8,0.1h9.9c0.7,0,1.3-0.2,1.8-0.7c0.5-0.5,0.7-1.1,0.7-1.8v-4.4c0-0.7-0.2-1.3-0.7-1.8c-0.5-0.5-1.1-0.7-1.8-0.7
	H8.8V187.8z"/>
<path class="st0" d="M613.8,220.9c0,1-0.2,1.9-0.7,2.7c-0.5,0.8-1.2,1.5-2.1,2c-0.9,0.5-2.1,0.8-3.5,0.8c-1.3,0-2.5-0.2-3.6-0.7
	c-1-0.5-1.9-1.2-2.5-2c-0.6-0.9-1-1.8-1.1-2.9h2.8c0,0.6,0.2,1.1,0.6,1.7c0.3,0.6,0.8,1,1.5,1.4c0.6,0.4,1.4,0.5,2.3,0.5
	c1.2,0,2-0.3,2.7-0.9s0.9-1.4,0.9-2.4c0-0.8-0.2-1.5-0.7-2c-0.4-0.5-1-0.9-1.6-1.2c-0.6-0.3-1.5-0.6-2.6-1c-1.3-0.4-2.3-0.8-3.1-1.2
	c-0.8-0.4-1.5-0.9-2-1.7c-0.5-0.8-0.8-1.7-0.8-3c0-1.1,0.2-2,0.8-2.8c0.5-0.8,1.2-1.4,2.2-1.9c1-0.4,2.1-0.7,3.4-0.7
	c2,0,3.6,0.5,4.8,1.5c1.2,1,1.9,2.2,2,3.7h-2.8c-0.2-0.8-0.6-1.5-1.3-2.1c-0.7-0.6-1.6-0.9-2.7-0.9c-1.1,0-1.9,0.3-2.5,0.8
	c-0.6,0.6-1,1.3-1,2.3c0,0.8,0.2,1.4,0.6,1.9c0.4,0.5,0.9,0.9,1.5,1.2c0.6,0.3,1.5,0.6,2.5,0.9c1.3,0.4,2.4,0.8,3.2,1.2
	c0.8,0.4,1.5,1,2,1.7C613.5,218.5,613.8,219.6,613.8,220.9z M585.8,220.9c0,1-0.2,1.9-0.7,2.7c-0.5,0.8-1.2,1.5-2.1,2
	c-0.9,0.5-2.1,0.8-3.5,0.8c-1.4,0-2.6-0.2-3.6-0.7c-1-0.5-1.9-1.2-2.5-2c-0.6-0.9-1-1.8-1.1-2.9h2.8c0,0.6,0.2,1.1,0.6,1.7
	c0.3,0.6,0.8,1,1.5,1.4c0.6,0.4,1.4,0.5,2.3,0.5c1.2,0,2-0.3,2.7-0.9s0.9-1.4,0.9-2.4c0-0.8-0.2-1.5-0.7-2c-0.4-0.5-1-0.9-1.6-1.2
	c-0.6-0.3-1.5-0.6-2.6-1c-1.3-0.4-2.3-0.8-3.1-1.2c-0.8-0.4-1.5-0.9-2-1.7c-0.5-0.8-0.8-1.7-0.8-3c0-1.1,0.2-2,0.8-2.8
	c0.5-0.8,1.2-1.4,2.2-1.9c1-0.4,2.1-0.7,3.4-0.7c2,0,3.6,0.5,4.8,1.5c1.2,1,1.9,2.2,2,3.7h-2.8c-0.2-0.8-0.6-1.5-1.2-2.1
	c-0.7-0.6-1.6-0.9-2.8-0.9c-1.1,0-1.9,0.3-2.5,0.8c-0.6,0.6-1,1.3-1,2.3c0,0.8,0.2,1.4,0.6,1.9c0.4,0.5,0.9,0.9,1.5,1.2
	c0.6,0.3,1.5,0.6,2.5,0.9c1.3,0.4,2.4,0.8,3.2,1.2c0.8,0.4,1.5,1,2,1.7C585.5,218.5,585.8,219.6,585.8,220.9z M557.8,207.9h-8.6v7
	h7.8v2h-7.8v7.1h8.6v2.1h-11.3v-20.4h11.3V207.9z M521.9,205.5c2.5,0,4.6,0.6,6.2,1.8c1.6,1.2,2.8,2.9,3.4,5h-2.8
	c-0.5-1.3-1.4-2.4-2.5-3.2c-1.2-0.8-2.6-1.2-4.2-1.2c-1.3,0-2.5,0.3-3.6,1c-1,0.7-1.9,1.6-2.5,2.8c-0.6,1.2-0.9,2.6-0.9,4.2
	c0,1.6,0.3,3,0.9,4.2c0.6,1.2,1.5,2.1,2.5,2.8c1,0.6,2.2,1,3.6,1c1.7,0,3.1-0.4,4.2-1.2c1.2-0.8,2-1.9,2.5-3.2h2.8
	c-0.6,2.1-1.7,3.8-3.4,5s-3.7,1.8-6.2,1.8c-1.9,0-3.6-0.4-5.1-1.3c-1.5-0.9-2.6-2.1-3.4-3.7c-0.8-1.6-1.2-3.4-1.2-5.4
	c0-2,0.4-3.8,1.2-5.4c0.8-1.6,2-2.8,3.4-3.7C518.3,206,520,205.5,521.9,205.5z M488.2,205.5c2.5,0,4.5,0.6,6.2,1.8
	c1.6,1.2,2.8,2.9,3.4,5h-2.8c-0.5-1.3-1.3-2.4-2.5-3.2c-1.2-0.8-2.6-1.2-4.3-1.2c-1.3,0-2.5,0.3-3.6,1c-1.1,0.7-1.9,1.6-2.5,2.8
	c-0.6,1.2-0.9,2.6-0.9,4.2c0,1.6,0.3,3,0.9,4.2c0.6,1.2,1.4,2.1,2.5,2.8c1,0.6,2.2,1,3.6,1c1.7,0,3.1-0.4,4.3-1.2
	c1.2-0.8,2-1.9,2.5-3.2h2.8c-0.6,2.1-1.7,3.8-3.4,5s-3.7,1.8-6.2,1.8c-1.9,0-3.6-0.4-5.1-1.3c-1.5-0.9-2.6-2.1-3.4-3.7
	c-0.8-1.6-1.2-3.4-1.2-5.4c0-2,0.4-3.8,1.2-5.4c0.8-1.6,2-2.8,3.4-3.7C484.5,206,486.2,205.5,488.2,205.5z M448.2,205.8h2.6V218
	c0,2,0.5,3.5,1.3,4.4c0.9,0.9,2.1,1.4,3.7,1.4c1.5,0,2.8-0.5,3.6-1.4c0.9-1,1.3-2.5,1.3-4.4v-12.2h2.6V218c0,2.8-0.7,4.9-2.1,6.3
	c-1.4,1.4-3.2,2.1-5.5,2.1s-4.2-0.7-5.5-2.1s-2.1-3.5-2.1-6.3V205.8z M433.2,220.9c0,1-0.2,1.9-0.7,2.7c-0.5,0.8-1.2,1.5-2.1,2
	c-1,0.5-2.1,0.8-3.5,0.8c-1.4,0-2.6-0.2-3.6-0.7c-1-0.5-1.9-1.2-2.5-2c-0.6-0.9-1-1.8-1.1-2.9h2.8c0.1,0.6,0.3,1.1,0.6,1.7
	s0.8,1,1.5,1.4c0.6,0.4,1.4,0.5,2.3,0.5c1.2,0,2-0.3,2.7-0.9s0.9-1.4,0.9-2.4c0-0.8-0.2-1.5-0.7-2c-0.4-0.5-1-0.9-1.6-1.2
	c-0.7-0.3-1.5-0.6-2.6-1c-1.3-0.4-2.3-0.8-3.1-1.2c-0.8-0.4-1.4-0.9-2-1.7c-0.6-0.8-0.8-1.7-0.8-3c0-1.1,0.3-2,0.8-2.8
	c0.5-0.8,1.2-1.4,2.2-1.9c1-0.4,2.1-0.7,3.4-0.7c2,0,3.6,0.5,4.8,1.5c1.2,1,1.9,2.2,2.1,3.7h-2.8c-0.2-0.8-0.6-1.5-1.2-2.1
	c-0.7-0.6-1.6-0.9-2.8-0.9c-1.1,0-1.9,0.3-2.5,0.8c-0.6,0.6-1,1.3-1,2.3c0,0.8,0.2,1.4,0.6,1.9c0.4,0.5,0.9,0.9,1.6,1.2
	c0.6,0.3,1.5,0.6,2.5,0.9c1.3,0.4,2.4,0.8,3.2,1.2s1.5,1,2,1.7C432.9,218.5,433.2,219.6,433.2,220.9z M386.4,224.2
	c0.3,0.9,0.4,1.6,0.4,2.4c0,1-0.2,1.8-0.8,2.4c-0.5,0.6-1.3,0.9-2.3,0.9v-1.1c0.5,0,0.8-0.1,1-0.4c0.2-0.3,0.3-0.7,0.3-1.2v-0.3
	h-1.5v-2.7L386.4,224.2L386.4,224.2z M367.6,205.8h3l-6.7,12.7v7.7h-2.7v-7.7l-6.7-12.7h3.1l5,9.9L367.6,205.8z M327.7,205.8h14.2
	v2.1h-5.8v18.3h-2.7v-18.3h-5.8L327.7,205.8L327.7,205.8z M307.8,205.8v18.4h7.2v2.1h-9.9v-20.4H307.8z M278.1,219.4h7.5l-3.7-10.3
	L278.1,219.4z M288,226.2l-1.7-4.7h-9l-1.7,4.7h-2.9l7.6-20.1h3l7.5,20.1H288z M257,205.8h3l-6.7,12.7v7.7h-2.7v-7.7l-6.7-12.7h3.1
	l5,9.9L257,205.8z M220.4,207.9c-1.4,0-2.7,0.3-3.8,1c-1.1,0.6-2,1.6-2.6,2.8c-0.6,1.2-1,2.6-1,4.2c0,1.6,0.3,3,1,4.2
	c0.6,1.2,1.5,2.1,2.6,2.8s2.4,1,3.8,1c1.4,0,2.6-0.3,3.8-1c1.1-0.6,2-1.6,2.6-2.8c0.6-1.2,0.9-2.6,0.9-4.2c0-1.6-0.3-3-0.9-4.2
	s-1.5-2.1-2.6-2.8C223,208.3,221.8,207.9,220.4,207.9z M220.4,205.5c1.9,0,3.6,0.4,5.1,1.3c1.5,0.9,2.7,2.1,3.6,3.7
	c0.9,1.6,1.3,3.4,1.3,5.4c0,2-0.4,3.8-1.3,5.4c-0.9,1.6-2.1,2.9-3.6,3.7c-1.5,0.9-3.2,1.3-5.1,1.3c-1.9,0-3.6-0.4-5.1-1.3
	c-1.5-0.9-2.8-2.1-3.6-3.7c-0.9-1.6-1.3-3.4-1.3-5.4s0.4-3.8,1.3-5.4s2.1-2.9,3.6-3.7C216.8,205.9,218.5,205.5,220.4,205.5z
	 M189.5,205.8v18.4h7.2v2.1h-9.9v-20.4H189.5z M152.9,224.2c0.3,0.9,0.4,1.6,0.4,2.4c0,1-0.2,1.8-0.8,2.4c-0.5,0.6-1.3,0.9-2.3,0.9
	v-1.1c0.5,0,0.8-0.1,1.1-0.4c0.2-0.3,0.3-0.7,0.3-1.2v-0.3h-1.5v-2.7L152.9,224.2L152.9,224.2z M123,205.8h14.2v2.1h-5.8v18.3h-2.6
	v-18.3H123V205.8z M109.5,220.9c0,1-0.2,1.9-0.7,2.7c-0.5,0.8-1.2,1.5-2.1,2c-1,0.5-2.1,0.8-3.5,0.8c-1.4,0-2.5-0.2-3.6-0.7
	c-1.1-0.5-1.9-1.2-2.5-2c-0.6-0.9-1-1.8-1.1-2.9h2.8c0.1,0.6,0.3,1.1,0.6,1.7c0.3,0.6,0.8,1,1.5,1.4c0.6,0.4,1.4,0.5,2.3,0.5
	c1.2,0,2-0.3,2.7-0.9c0.6-0.6,0.9-1.4,0.9-2.4c0-0.8-0.2-1.5-0.6-2c-0.4-0.5-1-0.9-1.6-1.2c-0.6-0.3-1.5-0.6-2.6-1
	c-1.3-0.4-2.3-0.8-3.1-1.2c-0.8-0.4-1.5-0.9-2-1.7c-0.6-0.8-0.8-1.7-0.8-3c0-1.1,0.3-2,0.8-2.8c0.5-0.8,1.2-1.4,2.2-1.9
	c1-0.4,2.1-0.7,3.4-0.7c2,0,3.6,0.5,4.8,1.5c1.2,1,1.9,2.2,2.1,3.7h-2.8c-0.2-0.8-0.6-1.5-1.3-2.1c-0.7-0.6-1.6-0.9-2.8-0.9
	c-1.1,0-1.9,0.3-2.5,0.8c-0.6,0.6-1,1.3-1,2.3c0,0.8,0.2,1.4,0.6,1.9c0.4,0.5,0.9,0.9,1.5,1.2c0.6,0.3,1.5,0.6,2.5,0.9
	c1.3,0.4,2.4,0.8,3.2,1.2c0.8,0.4,1.5,1,2,1.7C109.2,218.5,109.5,219.6,109.5,220.9z M65.7,205.8h2.6V218c0,2,0.5,3.5,1.3,4.4
	s2.1,1.4,3.7,1.4c1.5,0,2.8-0.5,3.6-1.4c0.9-1,1.3-2.5,1.3-4.4v-12.2h2.6V218c0,2.8-0.7,4.9-2.1,6.3c-1.4,1.4-3.2,2.1-5.6,2.1
	c-2.3,0-4.1-0.7-5.5-2.1c-1.4-1.4-2.1-3.5-2.1-6.3L65.7,205.8L65.7,205.8z M40,208v7.9h3.9c3,0,4.5-1.3,4.5-3.9
	c0-2.6-1.5-3.9-4.5-3.9H40z M51.2,226.2h-3l-5.4-8.4H40v8.4h-2.6v-20.4h6.7c2.3,0,4,0.6,5.2,1.7c1.1,1.1,1.7,2.6,1.7,4.4
	c0,1.7-0.5,3-1.4,4c-0.9,1-2.3,1.6-4,1.9L51.2,226.2z M8.9,205.8h14.2v2.1h-5.8v18.3h-2.6v-18.3H8.9V205.8z"/>
<path class="st1" d="M599.2,155.5h16.3v-16.3h-16.3V155.5z M436.2,36.2v95.4c0,6.7,2.3,12.4,6.9,16.9c4.5,4.7,10.2,7,16.8,7h119
	v-16.1h-119c-4.1,0-7.7-3.6-7.7-7.8V36.2c0-4.2,3.4-7.8,7.7-7.8h119v-16h-119c-6.5,0-12.2,2.3-16.8,6.9
	C438.5,24,436.2,29.6,436.2,36.2z M393.3,155.5h16.3v-16.3h-16.3V155.5z M209.4,155.5h16V30.7l65.3,77.6l65.4-77.6v124.8h16.2V12.4
	h-22.2l-59.5,70.8l-59.3-70.8h-22L209.4,155.5L209.4,155.5z M166.5,155.5h16.2v-16.3h-16.2V155.5z M25.8,78.4v-42
	c0-4.3,3.4-7.7,7.7-7.7h95.4c4.2,0,7.8,3.4,7.8,7.7v42c0,4.3-3.6,7.5-7.8,7.5H33.5C29.4,85.9,25.8,82.7,25.8,78.4z M9.8,155.5h16
	v-54.1c4,0.5,6.5,0.8,7.7,0.8h95.4c6.7,0,12.4-2.4,17-7.1c4.5-4.5,6.8-10.2,6.8-16.7v-42c0-6.5-2.3-12.2-6.9-16.9
	c-4.7-4.7-10.2-7-16.9-7H9.8L9.8,155.5L9.8,155.5z"/>
</svg>
