<?xml version="1.0" encoding="utf-8"?>
<!-- Generator: Adobe Illustrator 26.4.1, SVG Export Plug-In . SVG Version: 6.00 Build 0)  -->
<svg version="1.1" id="Layer_1" xmlns="http://www.w3.org/2000/svg" xmlns:xlink="http://www.w3.org/1999/xlink" x="0px" y="0px"
	 viewBox="0 0 844.91 278.08" style="enable-background:new 0 0 844.91 278.08;" xml:space="preserve">
<style type="text/css">
	.st0{fill:#0E4D61;}
	.st1{fill:#135065;}
</style>
<path class="st0" d="M153.37,189.67l-34.77-68.35l59.64,70.58L153.37,189.67z M145.98,220.9L115.79,120.7l35.72,70.17L145.98,220.9z
	 M119.3,236.01l1.36-15.9l-0.41-2.39l-6.4-39.73l22.51,34.48L119.3,236.01z M96.63,213.21l21.02,7.52l-36.51,42L96.63,213.21z
	 M64.37,223.45l9.09,30.64l-17.34-36.67L64.37,223.45z M60.33,178.85l12.97-7.72l-17.68,35.72L60.33,178.85z M64.21,151.68
	l10.2,16.19l-23.75,14.21L64.21,151.68z M25.76,132.06l7.52,3.35l1.07,0.5l0.62-0.13l51.17-9.29L72.47,140.4l-43.61-2.93
	L25.76,132.06z M22.17,128.1l1.2-8.88l13.5-4.46l-3.18,18.42L22.17,128.1z M20.06,127.03l-3.43-1.86l2.02-11.94l2.56,5.29
	L20.06,127.03z M51.08,94.85l3.3,0.49L36,105.71l-12.35-2.27L51.08,94.85z M70.36,62.56l1.04-0.99l0.33,0.08l10.57,2.02L77.63,76.8
	l-22.8,10.57l-5.08-5.08L70.36,62.56z M68.96,44.01l1.24-19.58l6.2,19.08L71.44,56.4L68.96,44.01z M84.15,45.83l-0.99,11.48
	l-9.54-29.45L84.15,45.83z M101.75,13.24l5.25,37.62l-7.1,18.5L86.51,45.5L101.75,13.24z M102.41,68.96l6.86-17.8l-3.76-27.05
	l10.37,35.27L102.41,68.96z M132.68,81.39l-30.19-9.79l14.66-10.49l25.36,15.9L132.68,81.39z M163.08,117.36l0.04,32.5l-28.95-66.74
	l10.12-4.46L163.08,117.36z M173.4,116.45l-8.51-0.41l-14.29-29.45L173.4,116.45z M113.06,172.7v-53.44l29.9,99.28L113.06,172.7z
	 M94.19,213.54L78.54,263.6l-11.89-40.15L94.19,213.54z M69.04,107.03l18.01,17.06l-48.65,8.88L69.04,107.03z M64.79,107.78
	l-28.7,24.2l3.1-17.92L64.79,107.78z M57.56,96.09l9.33,8.92l-27.92,6.86l-1.45-4.46L57.56,96.09z M84.36,64.42l14.5,8.13
	l-3.39,20.69l-4.09-4.17l-1.49-1.53l-10.12-10.2L84.36,64.42z M129.34,82.63L97.58,93.94l3.34-20.48L129.34,82.63z M111.83,110.09
	l-2.23-2.27L98.16,96.09l31.63-11.28l-17.92,25.2L111.83,110.09z M110.83,113.69v55.71l-17.34-27.3v-0.04l-2.93-16.68L110.83,113.69
	z M71.15,106l23.5-8.67l-5.91,25.36L71.15,106z M91.05,122.56l5.78-24.78l13.38,13.75L91.05,122.56z M74.82,97.58l14.5-7.39l4.91,5
	l-24.86,9.17l-9.75-9.38l4.62-2.35L74.82,97.58z M85.48,89.65l-10.74,5.5l-8.01-3.72l4.5-2.27L85.48,89.65z M86.67,87.46l-13.54-0.5
	l5.53-7.68L86.67,87.46z M95.84,209.04l-18.71-40.72l15.07-24.16l18.5,28.91l-0.04,0.08L95.84,209.04z M76.35,171.83l18.05,39.36
	l-27.63,9.95L76.35,171.83z M97.17,69.12l-12.06-6.82l0.12-0.33l-0.29-0.04l1.12-12.68L97.17,69.12z M82.13,61.4l-9.62-1.82
	l4.91-12.72L82.13,61.4z M55.33,89.61l19.82-9.21l-4.83,6.73l-12.76,6.45l-4.62-0.66L55.33,89.61z M51.49,91.13l-1.28-5.29
	l2.97,2.97L51.49,91.13z M22.91,117.03l-3.63-7.52l0.7-4.5l15.36,2.81l1.53,4.62L22.91,117.03z M74.08,141.97l14.62-14.87
	l2.56,14.54l-14.58,23.38L74.08,141.97z M71.93,142.59l2.36,20.98l-13.71-21.76L71.93,142.59z M54.63,213.67l18.62-37.62
	l-8.71,44.81L54.63,213.67z M97.37,211.15l14.12-34.11l6.69,41.5L97.37,211.15z M176.79,186.83l-63.15-74.75l-0.29-0.33l19.16-26.93
	L176.79,186.83z M165.35,154.98l-0.04-36.67l12.72,0.62l-31.47-41.21l-1.04-1.32l-27.46-17.27L102.9,5.65L85.19,43.23l-16.6-28.29
	l-1.82,29.2l3.1,15.86L46.99,81.92l2.73,11.03l-31.06,9.75l-0.58,0.17l-0.29,1.73L17,109.47l-2.85,16.89l5.57,2.98v0.04l0.7,0.33
	l2.02,1.07l5.04,8.75l30.31,2.07l4.91,7.8l-17.02,38.12l12.06-7.23l-5.62,33.33l-0.08,0.5l0.25,0.58l25.11,53.03l0.74,1.61
	l1.24-1.45l38.66-44.48l-1.74,20.23l21.23-29.28l7.56,11.56l1.53,2.77l6.85-36.84l26.64,2.4l2.31,0.21L165.35,154.98z"/>
<path class="st1" d="M807.32,209.29c0,0.7,0.23,1.28,0.72,1.76c0.48,0.48,1.07,0.72,1.76,0.72h9.91c0.7,0,1.28-0.24,1.75-0.72
	c0.48-0.49,0.72-1.07,0.72-1.76v-3.32c0-0.7-0.24-1.28-0.72-1.77c-0.49-0.48-1.07-0.71-1.75-0.71h-9.91c-0.45,0-0.81-0.35-0.81-0.79
	v-3.33c0-0.45,0.36-0.81,0.81-0.81h9.91c0.44,0,0.8,0.36,0.8,0.81v0.58h1.68v-0.58c0-0.69-0.24-1.28-0.72-1.76
	c-0.49-0.49-1.07-0.72-1.75-0.72h-9.91c-0.68,0-1.28,0.23-1.76,0.72c-0.49,0.48-0.72,1.07-0.72,1.76v3.33
	c0,0.68,0.23,1.26,0.72,1.75c0.48,0.48,1.07,0.72,1.76,0.72h9.91c0.44,0,0.8,0.34,0.8,0.79v3.32c0,0.44-0.36,0.8-0.8,0.8h-9.91
	c-0.45,0-0.81-0.36-0.81-0.8v-0.58h-1.66V209.29z M786.88,198.57h6.61v13.2h1.68v-13.2h6.59v-1.67h-14.87V198.57z M766.35,211.77
	h1.66V198.8l10.9,12.96h2.28v-14.86h-1.68v12.97l-10.89-12.97h-2.28V211.77z M746.67,204.66v-5.28c0-0.45,0.36-0.81,0.8-0.81h9.91
	c0.44,0,0.8,0.36,0.8,0.81v5.28H746.67z M745,199.38v12.38h1.68v-5.43h11.51v5.43h1.68v-12.38c0-0.69-0.24-1.28-0.72-1.76
	c-0.48-0.49-1.07-0.72-1.76-0.72h-9.91c-0.68,0-1.26,0.23-1.75,0.72C745.24,198.11,745,198.7,745,199.38z M724.42,198.57h6.6v13.2
	h1.68v-13.2h6.59v-1.67h-14.87V198.57z M704.98,211.77h14.86v-1.68h-13.19v-13.21h-1.68V211.77z M683.72,209.29
	c0,0.7,0.23,1.28,0.72,1.76c0.48,0.48,1.06,0.72,1.74,0.72h9.9c0.7,0,1.28-0.24,1.77-0.72c0.47-0.49,0.71-1.07,0.71-1.76v-12.38
	h-1.68v12.38c0,0.44-0.36,0.8-0.8,0.8h-9.9c-0.44,0-0.81-0.36-0.81-0.8v-12.38h-1.65V209.29z M662.55,209.29
	c0,0.7,0.25,1.28,0.74,1.76c0.48,0.48,1.06,0.72,1.74,0.72h9.91c0.7,0,1.29-0.24,1.77-0.72c0.48-0.49,0.72-1.07,0.72-1.76v-3.32
	c0-0.7-0.25-1.28-0.74-1.77c-0.48-0.48-1.06-0.71-1.76-0.71h-9.91c-0.44,0-0.8-0.35-0.8-0.79v-3.33c0-0.45,0.36-0.81,0.8-0.81h9.91
	c0.45,0,0.82,0.36,0.82,0.81v0.58h1.68v-0.58c0-0.69-0.25-1.28-0.74-1.76c-0.48-0.49-1.06-0.72-1.76-0.72h-9.91
	c-0.68,0-1.26,0.23-1.74,0.72c-0.49,0.48-0.74,1.07-0.74,1.76v3.33c0,0.68,0.25,1.26,0.74,1.75c0.48,0.48,1.06,0.72,1.74,0.72h9.91
	c0.45,0,0.82,0.34,0.82,0.79v3.32c0,0.44-0.36,0.8-0.82,0.8h-9.91c-0.44,0-0.8-0.36-0.8-0.8v-0.58h-1.68V209.29z M641.37,211.77
	h1.68V198.8l10.9,12.96h2.28v-14.86h-1.68v12.97l-10.89-12.97h-2.3V211.77z M621.78,209.29v-9.91c0-0.45,0.36-0.81,0.8-0.81h9.91
	c0.45,0,0.81,0.36,0.81,0.81v9.91c0,0.44-0.36,0.8-0.81,0.8h-9.91C622.15,210.09,621.78,209.73,621.78,209.29z M620.12,199.38v9.91
	c0,0.7,0.24,1.28,0.72,1.76c0.48,0.48,1.06,0.72,1.74,0.72h9.91c0.7,0,1.29-0.24,1.77-0.72c0.48-0.49,0.72-1.07,0.72-1.76v-9.91
	c0-0.69-0.25-1.28-0.74-1.76c-0.48-0.49-1.06-0.72-1.75-0.72h-9.91c-0.69,0-1.27,0.23-1.74,0.72
	C620.36,198.11,620.12,198.7,620.12,199.38z M599.07,199.38v9.91c0,0.7,0.25,1.28,0.74,1.76c0.46,0.48,1.06,0.72,1.74,0.72h12.35
	v-1.68h-12.35c-0.44,0-0.8-0.36-0.8-0.8v-9.91c0-0.45,0.35-0.81,0.8-0.81h12.35v-1.67h-12.35c-0.69,0-1.28,0.23-1.74,0.72
	C599.31,198.11,599.07,198.7,599.07,199.38z M568.79,198.57h6.61v13.2h1.68v-13.2h6.59v-1.67h-14.87V198.57z M548.25,211.77h1.67
	V198.8l10.9,12.96h2.28v-14.86h-1.66v12.97l-10.9-12.97h-2.28V211.77z M528.36,211.77h13.56v-1.68h-11.89v-4.9h9.56v-1.69h-9.56
	v-4.93h11.89v-1.67h-13.56V211.77z M505.04,211.77h1.68V198.8l6.78,8.07l6.78-8.07v12.96h1.68v-14.86h-2.28l-6.18,7.35l-6.17-7.35
	h-2.3V211.77z M485.74,211.77h13.56v-1.68h-11.88v-4.9h9.56v-1.69h-9.56v-4.93h11.88v-1.67h-13.56V211.77z M464.45,199.38v9.91
	c0,0.7,0.24,1.28,0.72,1.76c0.48,0.48,1.06,0.72,1.74,0.72h9.91c0.7,0,1.29-0.24,1.77-0.72c0.48-0.49,0.72-1.07,0.72-1.76v-5.37
	h-5.34v1.69h3.66v3.68c0,0.44-0.36,0.8-0.81,0.8h-9.91c-0.42,0-0.79-0.36-0.79-0.8v-9.91c0-0.45,0.35-0.81,0.79-0.81h9.91
	c0.45,0,0.81,0.36,0.81,0.81v0.61h1.68v-0.61c0-0.69-0.24-1.28-0.73-1.76c-0.48-0.49-1.06-0.72-1.76-0.72h-9.91
	c-0.68,0-1.26,0.23-1.74,0.72C464.7,198.11,464.45,198.7,464.45,199.38z M444.78,204.66v-5.28c0-0.45,0.36-0.81,0.81-0.81h9.91
	c0.43,0,0.8,0.36,0.8,0.81v5.28H444.78z M443.12,199.38v12.38h1.66v-5.43h11.52v5.43h1.67v-12.38c0-0.69-0.25-1.28-0.71-1.76
	c-0.49-0.49-1.07-0.72-1.75-0.72h-9.91c-0.68,0-1.28,0.23-1.76,0.72C443.35,198.11,443.12,198.7,443.12,199.38z M421.78,211.77h1.68
	V198.8l10.89,12.96h2.3v-14.86h-1.68v12.97l-10.9-12.97h-2.28V211.77z M402.11,204.66v-5.28c0-0.45,0.37-0.81,0.81-0.81h9.91
	c0.43,0,0.8,0.36,0.8,0.81v5.28H402.11z M400.44,199.38v12.38h1.66v-5.43h11.52v5.43h1.66v-12.38c0-0.69-0.23-1.28-0.71-1.76
	c-0.49-0.49-1.07-0.72-1.76-0.72h-9.91c-0.68,0-1.28,0.23-1.76,0.72C400.67,198.11,400.44,198.7,400.44,199.38z M377.12,211.77h1.68
	V198.8l6.79,8.07l6.78-8.07v12.96h1.68v-14.86h-2.28l-6.18,7.35l-6.17-7.35h-2.29V211.77z M347.48,211.77h13.56v-1.68h-11.88v-4.9
	h9.54v-1.69h-9.54v-4.93h11.88v-1.67h-13.56V211.77z M326.35,199.38v9.91c0,0.7,0.24,1.28,0.72,1.76c0.48,0.48,1.06,0.72,1.75,0.72
	h12.35v-1.68h-12.35c-0.44,0-0.8-0.36-0.8-0.8v-9.91c0-0.45,0.35-0.81,0.8-0.81h12.35v-1.67h-12.35c-0.7,0-1.28,0.23-1.75,0.72
	C326.6,198.11,326.35,198.7,326.35,199.38z M317.71,211.77h1.68v-14.86h-1.68V211.77z M297.16,198.57h6.59v13.2h1.68v-13.2h6.59
	v-1.67h-14.86V198.57z M276.82,199.38v9.91c0,0.7,0.23,1.28,0.72,1.76c0.48,0.48,1.06,0.72,1.74,0.72h12.35v-1.68h-12.35
	c-0.42,0-0.8-0.36-0.8-0.8v-9.91c0-0.45,0.36-0.81,0.8-0.81h12.35v-1.67h-12.35c-0.68,0-1.26,0.23-1.74,0.72
	C277.05,198.11,276.82,198.7,276.82,199.38z M257.14,204.66v-5.28c0-0.45,0.36-0.81,0.81-0.81h9.89c0.44,0,0.8,0.36,0.8,0.81v5.28
	H257.14z M255.46,199.38v12.38h1.68v-5.43h11.51v5.43h1.68v-12.38c0-0.69-0.24-1.28-0.72-1.76c-0.48-0.49-1.06-0.72-1.76-0.72h-9.89
	c-0.7,0-1.28,0.23-1.76,0.72C255.71,198.11,255.46,198.7,255.46,199.38z M235.94,203.76v-4.36c0-0.44,0.35-0.8,0.8-0.8h9.89
	c0.45,0,0.79,0.36,0.79,0.8v4.36c0,0.44-0.33,0.79-0.79,0.79h-9.89C236.28,204.54,235.94,204.2,235.94,203.76z M234.26,211.77h1.68
	v-5.61c0.41,0.05,0.67,0.08,0.8,0.08h5.45l4.64,5.53h2.21l-4.66-5.53h2.26c0.7,0,1.29-0.24,1.77-0.72c0.48-0.49,0.72-1.07,0.72-1.76
	v-4.36c0-0.69-0.24-1.27-0.73-1.76c-0.48-0.48-1.06-0.72-1.76-0.72h-12.37V211.77z M215.51,203.76v-4.36c0-0.44,0.35-0.8,0.79-0.8
	h9.9c0.45,0,0.81,0.36,0.81,0.8v4.36c0,0.44-0.36,0.79-0.81,0.79h-9.9C215.87,204.54,215.51,204.2,215.51,203.76z M213.84,211.77
	h1.68v-5.61c0.42,0.05,0.67,0.08,0.79,0.08h9.9c0.7,0,1.28-0.24,1.77-0.72c0.48-0.49,0.71-1.07,0.71-1.76v-4.36
	c0-0.69-0.23-1.27-0.72-1.76c-0.48-0.48-1.07-0.72-1.76-0.72h-12.37V211.77z"/>
<path class="st1" d="M818.82,244.86c0,0.98-0.23,1.88-0.7,2.71c-0.46,0.83-1.17,1.51-2.12,2.03c-0.94,0.51-2.12,0.77-3.52,0.77
	c-1.35,0-2.55-0.24-3.6-0.73c-1.05-0.49-1.9-1.16-2.53-2.03c-0.62-0.85-0.98-1.83-1.08-2.94h2.82c0.05,0.58,0.25,1.15,0.58,1.7
	c0.34,0.56,0.83,1.01,1.45,1.35c0.63,0.36,1.39,0.54,2.28,0.54c1.16,0,2.05-0.31,2.67-0.93c0.62-0.62,0.93-1.41,0.93-2.37
	c0-0.83-0.22-1.5-0.66-2.03c-0.43-0.52-0.97-0.94-1.6-1.24c-0.63-0.29-1.5-0.62-2.61-0.96c-1.29-0.43-2.33-0.83-3.11-1.2
	c-0.79-0.37-1.46-0.94-2.01-1.7c-0.54-0.75-0.81-1.74-0.81-2.98c0-1.07,0.25-2.01,0.75-2.83c0.51-0.81,1.25-1.44,2.2-1.89
	c0.95-0.44,2.08-0.66,3.38-0.66c2.01,0,3.61,0.49,4.79,1.47c1.17,0.97,1.86,2.21,2.05,3.71h-2.84c-0.15-0.8-0.57-1.51-1.26-2.13
	c-0.67-0.63-1.58-0.95-2.74-0.95c-1.07,0-1.92,0.28-2.55,0.83c-0.64,0.56-0.97,1.33-0.97,2.34c0,0.8,0.22,1.45,0.64,1.93
	c0.41,0.49,0.93,0.87,1.55,1.16c0.62,0.27,1.47,0.59,2.55,0.95c1.31,0.43,2.37,0.83,3.17,1.22c0.81,0.39,1.49,0.97,2.05,1.74
	C818.54,242.54,818.82,243.57,818.82,244.86z M790.75,244.86c0,0.98-0.23,1.88-0.69,2.71c-0.47,0.83-1.17,1.51-2.13,2.03
	c-0.94,0.51-2.11,0.77-3.5,0.77c-1.36,0-2.57-0.24-3.62-0.73c-1.05-0.49-1.9-1.16-2.53-2.03c-0.62-0.85-0.98-1.83-1.08-2.94h2.82
	c0.05,0.58,0.25,1.15,0.58,1.7c0.35,0.56,0.83,1.01,1.45,1.35c0.63,0.36,1.39,0.54,2.28,0.54c1.16,0,2.05-0.31,2.67-0.93
	s0.93-1.41,0.93-2.37c0-0.83-0.22-1.5-0.66-2.03c-0.44-0.52-0.97-0.94-1.6-1.24c-0.63-0.29-1.5-0.62-2.61-0.96
	c-1.29-0.43-2.33-0.83-3.11-1.2c-0.79-0.37-1.45-0.94-2.01-1.7c-0.54-0.75-0.81-1.74-0.81-2.98c0-1.07,0.25-2.01,0.76-2.83
	c0.51-0.81,1.25-1.44,2.2-1.89c0.97-0.44,2.1-0.66,3.39-0.66c2.01,0,3.6,0.49,4.79,1.47c1.17,0.97,1.86,2.21,2.05,3.71h-2.85
	c-0.15-0.8-0.57-1.51-1.24-2.13c-0.68-0.63-1.6-0.95-2.76-0.95c-1.06,0-1.91,0.28-2.55,0.83c-0.63,0.56-0.95,1.33-0.95,2.34
	c0,0.8,0.21,1.45,0.62,1.93c0.41,0.49,0.93,0.87,1.55,1.16c0.62,0.27,1.47,0.59,2.55,0.95c1.31,0.43,2.37,0.83,3.17,1.22
	c0.81,0.39,1.49,0.97,2.05,1.74C790.47,242.54,790.75,243.57,790.75,244.86z M762.82,231.89h-8.64v6.98h7.77v2.03h-7.77v7.13h8.64
	v2.15h-11.27v-20.43h11.27V231.89z M726.87,229.53c2.5,0,4.56,0.61,6.19,1.84c1.62,1.22,2.75,2.9,3.36,5.03h-2.79
	c-0.52-1.34-1.37-2.42-2.53-3.23c-1.16-0.8-2.58-1.2-4.25-1.2c-1.34,0-2.54,0.32-3.59,0.96c-1.04,0.66-1.88,1.59-2.5,2.79
	c-0.61,1.21-0.91,2.63-0.91,4.25c0,1.6,0.3,3,0.91,4.21c0.62,1.2,1.45,2.12,2.5,2.77c1.05,0.65,2.25,0.96,3.59,0.96
	c1.67,0,3.09-0.4,4.25-1.2c1.16-0.81,2.01-1.89,2.53-3.23h2.79c-0.62,2.13-1.74,3.8-3.36,5.03c-1.62,1.23-3.68,1.84-6.19,1.84
	c-1.9,0-3.6-0.44-5.06-1.31c-1.47-0.87-2.61-2.11-3.44-3.69c-0.82-1.57-1.24-3.36-1.24-5.37c0-2.02,0.41-3.82,1.24-5.41
	c0.83-1.58,1.98-2.82,3.44-3.71C723.27,229.97,724.96,229.53,726.87,229.53z M693.16,229.53c2.48,0,4.54,0.61,6.16,1.84
	c1.62,1.22,2.75,2.9,3.36,5.03h-2.78c-0.52-1.34-1.35-2.42-2.51-3.23c-1.16-0.8-2.58-1.2-4.27-1.2c-1.33,0-2.52,0.32-3.57,0.96
	c-1.06,0.66-1.89,1.59-2.5,2.79c-0.61,1.21-0.91,2.63-0.91,4.25c0,1.6,0.3,3,0.91,4.21c0.6,1.2,1.44,2.12,2.5,2.77
	c1.05,0.65,2.25,0.96,3.57,0.96c1.69,0,3.11-0.4,4.27-1.2c1.16-0.81,2-1.89,2.51-3.23h2.78c-0.62,2.13-1.74,3.8-3.36,5.03
	c-1.62,1.23-3.68,1.84-6.16,1.84c-1.92,0-3.62-0.44-5.09-1.31c-1.47-0.87-2.61-2.11-3.44-3.69c-0.81-1.57-1.22-3.36-1.22-5.37
	c0-2.02,0.41-3.82,1.22-5.41c0.82-1.58,1.97-2.82,3.44-3.71C689.54,229.97,691.24,229.53,693.16,229.53z M653.2,229.75h2.63V242
	c0,2.01,0.45,3.49,1.33,4.45c0.89,0.95,2.12,1.43,3.69,1.43c1.55,0,2.75-0.48,3.62-1.43c0.88-0.98,1.31-2.46,1.31-4.45v-12.25h2.63
	V242c0,2.78-0.69,4.88-2.07,6.28c-1.38,1.39-3.23,2.09-5.54,2.09c-2.31,0-4.15-0.69-5.53-2.09c-1.38-1.4-2.07-3.5-2.07-6.28V229.75z
	 M638.2,244.86c0,0.98-0.23,1.88-0.7,2.71c-0.47,0.83-1.17,1.51-2.11,2.03c-0.95,0.51-2.13,0.77-3.52,0.77
	c-1.36,0-2.56-0.24-3.62-0.73c-1.04-0.49-1.88-1.16-2.52-2.03c-0.63-0.85-0.99-1.83-1.08-2.94h2.8c0.06,0.58,0.26,1.15,0.6,1.7
	s0.82,1.01,1.45,1.35c0.63,0.36,1.39,0.54,2.28,0.54c1.16,0,2.05-0.31,2.67-0.93s0.93-1.41,0.93-2.37c0-0.83-0.22-1.5-0.65-2.03
	c-0.44-0.52-0.97-0.94-1.61-1.24c-0.65-0.29-1.51-0.62-2.61-0.96c-1.3-0.43-2.34-0.83-3.13-1.2c-0.78-0.37-1.44-0.94-1.99-1.7
	c-0.56-0.75-0.83-1.74-0.83-2.98c0-1.07,0.26-2.01,0.78-2.83c0.51-0.81,1.25-1.44,2.2-1.89c0.95-0.44,2.09-0.66,3.38-0.66
	c2.01,0,3.6,0.49,4.77,1.47c1.18,0.97,1.88,2.21,2.07,3.71h-2.85c-0.15-0.8-0.57-1.51-1.25-2.13c-0.67-0.63-1.59-0.95-2.75-0.95
	c-1.07,0-1.92,0.28-2.55,0.83c-0.64,0.56-0.96,1.33-0.96,2.34c0,0.8,0.21,1.45,0.62,1.93c0.43,0.49,0.94,0.87,1.56,1.16
	c0.62,0.27,1.47,0.59,2.55,0.95c1.31,0.43,2.37,0.83,3.17,1.22c0.8,0.39,1.48,0.97,2.05,1.74
	C637.92,242.54,638.2,243.57,638.2,244.86z M591.38,248.25c0.27,0.85,0.4,1.64,0.4,2.36c0,1.01-0.25,1.81-0.75,2.44
	c-0.5,0.6-1.26,0.91-2.26,0.91v-1.14c0.48,0,0.82-0.12,1.04-0.39c0.23-0.26,0.35-0.66,0.35-1.22v-0.27h-1.49v-2.68H591.38z
	 M572.56,229.75h3.02l-6.69,12.7v7.73h-2.68v-7.73l-6.71-12.7h3.07l5.01,9.88L572.56,229.75z M532.66,229.75h14.17v2.14h-5.76v18.29
	h-2.65v-18.29h-5.76V229.75z M512.77,229.75v18.38h7.25v2.05h-9.88v-20.43H512.77z M483.08,243.4h7.48l-3.73-10.32L483.08,243.4z
	 M493.03,250.18l-1.72-4.72h-8.99l-1.72,4.72h-2.85l7.58-20.07h3l7.54,20.07H493.03z M462.04,229.75h3.02l-6.69,12.7v7.73h-2.67
	v-7.73l-6.73-12.7h3.07l5.01,9.88L462.04,229.75z M425.38,231.93c-1.42,0-2.68,0.32-3.79,0.98c-1.11,0.65-1.97,1.57-2.61,2.78
	c-0.63,1.21-0.95,2.63-0.95,4.25c0,1.6,0.32,3.01,0.95,4.24c0.63,1.21,1.5,2.14,2.61,2.78c1.11,0.64,2.37,0.97,3.79,0.97
	c1.39,0,2.64-0.33,3.75-0.99c1.11-0.64,1.97-1.57,2.61-2.79c0.63-1.21,0.94-2.61,0.94-4.21c0-1.62-0.31-3.04-0.94-4.25
	c-0.63-1.21-1.5-2.14-2.61-2.78C428.02,232.26,426.77,231.93,425.38,231.93z M425.38,229.48c1.9,0,3.6,0.45,5.12,1.34
	c1.5,0.89,2.7,2.13,3.57,3.73c0.87,1.59,1.29,3.4,1.29,5.41c0,2.01-0.43,3.81-1.29,5.39c-0.87,1.6-2.07,2.85-3.57,3.73
	c-1.53,0.89-3.23,1.34-5.12,1.34c-1.89,0-3.61-0.45-5.14-1.34c-1.55-0.89-2.75-2.13-3.62-3.73c-0.87-1.58-1.31-3.38-1.31-5.39
	c0-2.01,0.44-3.81,1.31-5.41c0.87-1.6,2.07-2.85,3.62-3.73C421.77,229.92,423.48,229.48,425.38,229.48z M394.47,229.75v18.38h7.25
	v2.05h-9.89v-20.43H394.47z M357.93,248.25c0.27,0.85,0.4,1.64,0.4,2.36c0,1.01-0.25,1.81-0.76,2.44c-0.5,0.6-1.26,0.91-2.26,0.91
	v-1.14c0.48,0,0.83-0.12,1.06-0.39c0.22-0.26,0.33-0.66,0.33-1.22v-0.27h-1.49v-2.68H357.93z M328.01,229.75h14.17v2.14h-5.76v18.29
	h-2.65v-18.29h-5.76V229.75z M314.52,244.86c0,0.98-0.23,1.88-0.7,2.71c-0.46,0.83-1.16,1.51-2.11,2.03
	c-0.95,0.51-2.13,0.77-3.52,0.77c-1.35,0-2.55-0.24-3.6-0.73c-1.06-0.49-1.9-1.16-2.54-2.03c-0.63-0.85-0.99-1.83-1.08-2.94h2.8
	c0.06,0.58,0.26,1.15,0.6,1.7c0.34,0.56,0.82,1.01,1.45,1.35c0.63,0.36,1.39,0.54,2.28,0.54c1.16,0,2.05-0.31,2.67-0.93
	c0.62-0.62,0.93-1.41,0.93-2.37c0-0.83-0.22-1.5-0.65-2.03c-0.44-0.52-0.98-0.94-1.6-1.24c-0.64-0.29-1.51-0.62-2.61-0.96
	c-1.31-0.43-2.34-0.83-3.11-1.2c-0.79-0.37-1.46-0.94-2.01-1.7c-0.56-0.75-0.83-1.74-0.83-2.98c0-1.07,0.26-2.01,0.78-2.83
	c0.51-0.81,1.25-1.44,2.2-1.89c0.95-0.44,2.09-0.66,3.39-0.66c2.01,0,3.6,0.49,4.77,1.47c1.18,0.97,1.88,2.21,2.07,3.71h-2.84
	c-0.16-0.8-0.58-1.51-1.26-2.13c-0.67-0.63-1.59-0.95-2.75-0.95c-1.07,0-1.92,0.28-2.55,0.83c-0.65,0.56-0.96,1.33-0.96,2.34
	c0,0.8,0.21,1.45,0.63,1.93c0.41,0.49,0.93,0.87,1.55,1.16c0.62,0.27,1.47,0.59,2.55,0.95c1.32,0.43,2.37,0.83,3.17,1.22
	c0.8,0.39,1.48,0.97,2.05,1.74C314.24,242.54,314.52,243.57,314.52,244.86z M270.67,229.75h2.65V242c0,2.01,0.45,3.49,1.34,4.45
	s2.11,1.43,3.67,1.43c1.55,0,2.76-0.48,3.63-1.43c0.87-0.98,1.29-2.46,1.29-4.45v-12.25h2.65V242c0,2.78-0.69,4.88-2.07,6.28
	c-1.38,1.39-3.23,2.09-5.57,2.09c-2.3,0-4.13-0.69-5.51-2.09c-1.39-1.4-2.09-3.5-2.09-6.28V229.75z M244.96,232.03v7.89h3.87
	c2.99,0,4.49-1.31,4.49-3.95c0-2.63-1.49-3.94-4.49-3.94H244.96z M256.16,250.18h-2.98l-5.36-8.35h-2.86v8.35h-2.63v-20.43h6.72
	c2.31,0,4.04,0.55,5.22,1.66c1.15,1.11,1.72,2.58,1.72,4.43c0,1.66-0.46,2.99-1.37,4c-0.94,1.02-2.29,1.65-4.04,1.9L256.16,250.18z
	 M213.94,229.75h14.17v2.14h-5.76v18.29h-2.63v-18.29h-5.78V229.75z"/>
<path class="st0" d="M804.17,179.5h16.31v-16.31h-16.31V179.5z M641.23,60.23v95.41c0,6.7,2.27,12.35,6.93,16.9
	c4.54,4.69,10.24,6.97,16.78,6.97h118.95v-16.05H664.93c-4.12,0-7.69-3.55-7.69-7.81V60.23c0-4.23,3.42-7.77,7.69-7.77h118.95V36.41
	H664.93c-6.54,0-12.24,2.28-16.78,6.93C643.49,48.04,641.23,53.57,641.23,60.23z M598.35,179.5h16.31v-16.31h-16.31V179.5z
	 M414.36,179.5h16.05V54.74l65.31,77.62l65.43-77.62V179.5h16.2V36.41h-22.17l-59.46,70.82l-59.34-70.82h-22.02V179.5z
	 M371.49,179.5h16.2v-16.31h-16.2V179.5z M230.83,102.42V60.39c0-4.28,3.39-7.66,7.66-7.66h95.4c4.24,0,7.81,3.38,7.81,7.66v42.03
	c0,4.27-3.58,7.5-7.81,7.5h-95.4C234.37,109.92,230.83,106.69,230.83,102.42z M214.79,179.5h16.04v-54.08
	c3.97,0.54,6.51,0.85,7.66,0.85h95.4c6.66,0,12.35-2.42,17.01-7.11c4.54-4.54,6.81-10.2,6.81-16.74V60.39
	c0-6.54-2.27-12.2-6.93-16.9c-4.69-4.7-10.24-6.97-16.9-6.97h-119.1V179.5z"/>
</svg>
