<?xml version="1.0" encoding="utf-8"?>
<!-- Generator: Adobe Illustrator 26.4.1, SVG Export Plug-In . SVG Version: 6.00 Build 0)  -->
<svg version="1.1" id="Layer_1" xmlns="http://www.w3.org/2000/svg" xmlns:xlink="http://www.w3.org/1999/xlink" x="0px" y="0px"
	 viewBox="0 0 121 161" style="enable-background:new 0 0 121 161;" xml:space="preserve">
<style type="text/css">
	.st0{fill:#0E4D61;}
</style>
<path class="st0" d="M91.7,111.5L71.1,70.9l35.4,41.9L91.7,111.5z M87.3,130.1L69.4,70.5l21.2,41.7L87.3,130.1z M71.5,139l0.8-9.4
	l-0.2-1.4l-3.8-23.6l13.4,20.5L71.5,139z M58,125.5l12.5,4.5l-21.7,25L58,125.5z M38.8,131.6l5.4,18.2L33.9,128L38.8,131.6z
	 M36.4,105.1l7.7-4.6l-10.5,21.2L36.4,105.1z M38.7,88.9l6.1,9.6L30.7,107L38.7,88.9z M15.9,77.3l4.5,2l0.6,0.3l0.4-0.1L51.8,74
	l-8.1,8.3l-25.9-1.7L15.9,77.3z M13.8,74.9l0.7-5.3l8-2.7l-1.9,10.9L13.8,74.9z M12.5,74.3l-2-1.1l1.2-7.1l1.5,3.1L12.5,74.3z
	 M30.9,55.2l2,0.3L22,61.6l-7.3-1.3L30.9,55.2z M42.4,36l0.6-0.6l0.2,0l6.3,1.2l-2.8,7.8l-13.5,6.3l-3-3L42.4,36z M41.6,24.9
	l0.7-11.6L46,24.7L43,32.3L41.6,24.9z M50.6,26L50,32.9l-5.7-17.5L50.6,26z M61.1,6.7L64.2,29L60,40l-8-14.2L61.1,6.7z M61.4,39.8
	l4.1-10.6l-2.2-16.1l6.2,21L61.4,39.8z M79.4,47.2l-17.9-5.8l8.7-6.2l15.1,9.4L79.4,47.2z M97.5,68.5l0,19.3L80.3,48.2l6-2.7
	L97.5,68.5z M103.6,68l-5.1-0.2l-8.5-17.5L103.6,68z M67.8,101.4V69.7l17.8,59L67.8,101.4z M56.6,125.7l-9.3,29.7l-7.1-23.9
	L56.6,125.7z M41.6,62.4l10.7,10.1l-28.9,5.3L41.6,62.4z M39.1,62.8L22,77.2l1.8-10.6L39.1,62.8z M34.8,55.9l5.5,5.3l-16.6,4.1
	l-0.9-2.7L34.8,55.9z M50.7,37.1l8.6,4.8l-2,12.3l-2.4-2.5L54,50.8l-6-6.1L50.7,37.1z M77.4,47.9l-18.9,6.7l2-12.2L77.4,47.9z
	 M67,64.2l-1.3-1.3l-6.8-7l18.8-6.7L67,64.2L67,64.2z M66.4,66.4v33.1L56.1,83.2v0l-1.7-9.9L66.4,66.4z M42.9,61.8l14-5.2l-3.5,15.1
	L42.9,61.8z M54.7,71.6l3.4-14.7l8,8.2L54.7,71.6z M45,56.8l8.6-4.4l2.9,3l-14.8,5.4L36,55.2l2.7-1.4L45,56.8z M51.4,52.1L45,55.3
	l-4.8-2.2l2.7-1.3L51.4,52.1z M52.1,50.8l-8-0.3l3.3-4.6L52.1,50.8z M57.5,123L46.4,98.8l9-14.4l11,17.2l0,0L57.5,123z M46,100.9
	l10.7,23.4l-16.4,5.9L46,100.9z M58.3,39.9l-7.2-4.1l0.1-0.2l-0.2,0l0.7-7.5L58.3,39.9z M49.4,35.3l-5.7-1.1l2.9-7.6L49.4,35.3z
	 M33.5,52l11.8-5.5l-2.9,4l-7.6,3.8L32,54L33.5,52z M31.2,53l-0.8-3.1l1.8,1.8L31.2,53z M14.2,68.3L12,63.9l0.4-2.7l9.1,1.7l0.9,2.7
	L14.2,68.3z M44.6,83.2l8.7-8.8l1.5,8.6l-8.7,13.9L44.6,83.2z M43.3,83.5L44.7,96l-8.1-12.9L43.3,83.5z M33,125.8l11.1-22.4
	L38.9,130L33,125.8z M58.4,124.3l8.4-20.3l4,24.7L58.4,124.3z M105.6,109.8L68.1,65.4l-0.2-0.2l11.4-16L105.6,109.8z M98.8,90.9
	l0-21.8l7.6,0.4L87.7,45l-0.6-0.8L70.7,33.9l-9-31.8L51.2,24.5L41.3,7.7L40.3,25l1.8,9.4l-13.6,13l1.6,6.6l-18.5,5.8l-0.3,0.1
	l-0.2,1l-0.5,2.9L9,73.9l3.3,1.8v0l0.4,0.2l1.2,0.6l3,5.2l18,1.2l2.9,4.6l-10.1,22.7l7.2-4.3l-3.3,19.8l0,0.3l0.1,0.3l14.9,31.5
	l0.4,1l0.7-0.9l23-26.4l-1,12l12.6-17.4l4.5,6.9l0.9,1.6l4.1-21.9l15.8,1.4l1.4,0.1L98.8,90.9z"/>
</svg>
